<?xml version="1.0" standalone="no"?>
<svg xmlns:xlink="http://www.w3.org/1999/xlink" id="wave" style="transform:rotate(180deg); transition: 0.3s" viewBox="0 0 1440 100" version="1.1" xmlns="http://www.w3.org/2000/svg"><defs><linearGradient id="sw-gradient-0" x1="0" x2="0" y1="1" y2="0"><stop stop-color="rgba(255, 249, 234, 1)" offset="0%"/><stop stop-color="rgba(255, 249, 234, 1)" offset="100%"/></linearGradient></defs><path style="transform:translate(0, 0px); opacity:1" fill="url(#sw-gradient-0)" d="M0,80L26.7,78.3C53.3,77,107,73,160,63.3C213.3,53,267,37,320,28.3C373.3,20,427,20,480,21.7C533.3,23,587,27,640,35C693.3,43,747,57,800,53.3C853.3,50,907,30,960,33.3C1013.3,37,1067,63,1120,65C1173.3,67,1227,43,1280,38.3C1333.3,33,1387,47,1440,46.7C1493.3,47,1547,33,1600,23.3C1653.3,13,1707,7,1760,15C1813.3,23,1867,47,1920,58.3C1973.3,70,2027,70,2080,61.7C2133.3,53,2187,37,2240,31.7C2293.3,27,2347,33,2400,33.3C2453.3,33,2507,27,2560,21.7C2613.3,17,2667,13,2720,23.3C2773.3,33,2827,57,2880,70C2933.3,83,2987,87,3040,85C3093.3,83,3147,77,3200,71.7C3253.3,67,3307,63,3360,56.7C3413.3,50,3467,40,3520,43.3C3573.3,47,3627,63,3680,73.3C3733.3,83,3787,87,3813,88.3L3840,90L3840,100L3813.3,100C3786.7,100,3733,100,3680,100C3626.7,100,3573,100,3520,100C3466.7,100,3413,100,3360,100C3306.7,100,3253,100,3200,100C3146.7,100,3093,100,3040,100C2986.7,100,2933,100,2880,100C2826.7,100,2773,100,2720,100C2666.7,100,2613,100,2560,100C2506.7,100,2453,100,2400,100C2346.7,100,2293,100,2240,100C2186.7,100,2133,100,2080,100C2026.7,100,1973,100,1920,100C1866.7,100,1813,100,1760,100C1706.7,100,1653,100,1600,100C1546.7,100,1493,100,1440,100C1386.7,100,1333,100,1280,100C1226.7,100,1173,100,1120,100C1066.7,100,1013,100,960,100C906.7,100,853,100,800,100C746.7,100,693,100,640,100C586.7,100,533,100,480,100C426.7,100,373,100,320,100C266.7,100,213,100,160,100C106.7,100,53,100,27,100L0,100Z"/></svg>